<?xml version="1.0" encoding="UTF-8"?><svg id="icons-gallery" xmlns="http://www.w3.org/2000/svg" viewBox="0 0 54.29 44.53"><path id="camera-icon" d="M7.8,6.38c0-.63-.01-1.27,0-1.91C7.86,1.84,9.57,.08,12.21,.03c2.43-.05,4.86-.03,7.29,0,3.02,.03,4.72,1.76,4.77,4.81,0,.51,0,1.01,0,1.71,.62,0,1.12,0,1.62,0,6.87,0,13.74,0,20.61,0,4.55,0,7.78,3.23,7.79,7.75,0,7.47,0,14.95,0,22.42,0,4.55-3.18,7.79-7.74,7.8-12.95,.03-25.89,.03-38.84,0C3.16,44.5,0,41.23,0,36.67c0-7.38,0-14.76,0-22.14,0-4.55,2.71-7.52,7.27-8,.13-.01,.26-.07,.53-.15ZM27.06,41.6c6.31,0,12.62,.01,18.93,0,3.42,0,5.31-1.9,5.31-5.29,0-7.15,0-14.29,0-21.44,0-3.44-1.8-5.37-5.21-5.38-12.62-.04-25.24-.04-37.85,0-3.47,.01-5.23,1.88-5.23,5.34-.01,7.1,0,14.2,0,21.3,0,3.63,1.87,5.47,5.56,5.47,6.17,0,12.34,0,18.51,0ZM21.23,6.46c0-.71,.01-1.31,0-1.91-.03-1.02-.62-1.57-1.58-1.59-2.42-.04-4.85-.04-7.27,.01-.97,.02-1.54,.57-1.52,1.62,.01,.59,0,1.19,0,1.87h10.37Zm16.32,19.12c.03,5.9-4.55,10.5-10.45,10.51-5.71,0-10.33-4.6-10.36-10.33-.03-5.83,4.53-10.47,10.32-10.51,5.83-.03,10.46,4.53,10.49,10.33Zm-17.77,.03c-.02,4.1,3.2,7.43,7.27,7.5,4.05,.07,7.46-3.26,7.47-7.3,.02-4.24-3.18-7.52-7.34-7.53-4.13,0-7.38,3.21-7.4,7.33Zm23.03-11.83c-.84,0-1.74-.18-2.5,.06-.56,.18-1.31,.91-1.31,1.39,0,.5,.77,1.37,1.27,1.43,1.66,.18,3.37,.18,5.03,0,.52-.06,1.24-.85,1.35-1.41,.18-.9-.52-1.44-1.45-1.47-.79-.03-1.59,0-2.38,0,0,0,0,0,0,0Z" style="fill:#7a4da8;"/></svg>