<?xml version="1.0" encoding="UTF-8"?><svg id="icons-gallery" xmlns="http://www.w3.org/2000/svg" viewBox="0 0 50 50"><path id="close-icon" d="M34.84,32.37c.68,.68,.68,1.79,0,2.47-.33,.33-.77,.51-1.24,.51s-.9-.18-1.23-.51l-7.37-7.37-7.37,7.37c-.68,.68-1.79,.68-2.47,0-.68-.68-.68-1.79,0-2.47l7.37-7.37-7.37-7.37c-.33-.33-.51-.77-.51-1.23s.18-.91,.51-1.24c.68-.68,1.79-.68,2.47,0l7.37,7.37,7.37-7.37c.68-.68,1.79-.68,2.47,0,.68,.68,.68,1.79,0,2.47l-7.37,7.37,7.37,7.37Zm15.16-7.37c0,13.79-11.21,25-25,25S0,38.79,0,25,11.22,0,25,0s25,11.22,25,25ZM25,3.45C13.12,3.45,3.45,13.12,3.45,25s9.67,21.55,21.55,21.55,21.55-9.67,21.55-21.55S36.88,3.45,25,3.45Z" style="fill:#7a4da8;"/></svg>