<?xml version="1.0" encoding="UTF-8"?><svg id="icons-gallery" xmlns="http://www.w3.org/2000/svg" viewBox="0 0 50 50"><path id="download-icon" d="M30.82,29.52c.08,.46-.03,.93-.3,1.31l-4.1,5.75c-.33,.46-.86,.74-1.43,.74s-1.1-.27-1.43-.74l-4.1-5.75c-.27-.38-.38-.84-.3-1.31s.33-.86,.71-1.13c.77-.56,1.87-.38,2.44,.4l.92,1.3V14.44c0-.96,.79-1.75,1.75-1.75s1.75,.79,1.75,1.75v15.64l.92-1.29c.27-.38,.67-.63,1.14-.71,.47-.07,.93,.03,1.31,.3,.38,.27,.63,.67,.71,1.13Zm19.18-4.52c0,13.79-11.21,25-25,25S0,38.79,0,25,11.22,0,25,0s25,11.22,25,25ZM25,3.45C13.12,3.45,3.45,13.12,3.45,25s9.67,21.55,21.55,21.55,21.55-9.67,21.55-21.55S36.88,3.45,25,3.45Z" style="fill:#7a4da8;"/></svg>