<?xml version="1.0" encoding="UTF-8"?><svg id="icons-gallery" xmlns="http://www.w3.org/2000/svg" viewBox="0 0 43.56 43.56"><path id="edit-icon" d="M43.5,7.86c-.04-.18-.09-.36-.14-.54-.24-.79-.67-1.48-1.31-2.11l-.7-.69c-.76-.75-1.55-1.52-2.29-2.31-.99-1.05-2.13-2.04-3.82-2.21h-.87c-1.7,.19-2.88,1.26-3.81,2.27-.26,.28-.53,.55-.81,.82-.13,.13-.27,.26-.4,.39l-3.24,3.24c-7.82,7.82-15.65,15.65-23.46,23.48-.36,.36-.63,.82-.71,1.22-.51,2.63-1,5.31-1.48,7.91l-.43,2.33c-.11,.57,.04,1.11,.4,1.47,.28,.28,.67,.43,1.1,.43,.12,0,.24-.01,.37-.03l2.66-.49c2.49-.46,4.97-.92,7.46-1.38,.51-.09,.92-.3,1.27-.65,9.58-9.59,19.17-19.18,28.76-28.76,.64-.64,1.07-1.33,1.31-2.12,.05-.16,.09-.32,.14-.49l.06-.24v-1.24s-.06-.3-.06-.3ZM8.8,39.18l-5.41,1,1-5.42,4.41,4.41ZM36.43,13.49L12.04,37.87l-6.32-6.32L30.1,7.17l6.33,6.33Zm3.44-3.35l-1.16,1.18-6.39-6.4c.11-.12,.21-.23,.32-.35,.36-.4,.73-.81,1.13-1.17,.57-.51,1.47-.53,2.13-.02,.22,.17,.43,.38,.63,.58l.09,.09c1.09,1.09,2.18,2.17,3.27,3.27,.9,.91,.9,1.91,0,2.83Z" style="fill:#7a4da8;"/></svg>