<?xml version="1.0" encoding="UTF-8"?><svg id="icons-gallery" xmlns="http://www.w3.org/2000/svg" viewBox="0 0 50 37.76"><path id="email-icon" d="M49.99,2.06s-.02-.17-.03-.23h0s0-.01,0-.01h0c-.02-.07-.1-.36-.11-.39-.02-.04-.18-.36-.2-.4-.02-.03-.14-.18-.16-.21-.07-.09-.16-.18-.25-.26-.02-.02-.03-.03-.04-.04l-.34-.23c-.06-.04-.26-.13-.33-.15-.09-.04-.19-.07-.45-.11-.08-.01-.24-.03-.32-.03H2.14c-.06,0-.35,.05-.4,.06-.09,.02-.17,.05-.42,.14-.06,.03-.28,.15-.33,.19-.08,.06-.16,.12-.25,.2-.07,.06-.21,.22-.27,.29-.02,.03-.2,.33-.22,.36-.03,.06-.12,.28-.14,.35-.03,.09-.05,.19-.06,.24,0,.05-.04,.36-.04,.4V35.52c0,1.23,1,2.24,2.24,2.24H47.77c1.23,0,2.23-1,2.23-2.24V2.06ZM25,20.22L7.95,4.47H42.05l-17.05,15.75Zm1.52,4.69L45.53,7.34v25.94H4.47V7.34L23.48,24.9c.82,.77,2.2,.78,3.04,0Z" style="fill:#7a4da8;"/></svg>