<?xml version="1.0" encoding="UTF-8"?><svg id="icons-gallery" xmlns="http://www.w3.org/2000/svg" viewBox="0 0 50 47.72"><path id="favorite-icon" d="M48.29,16.92H31.74L26.62,1.18c-.23-.71-.88-1.18-1.62-1.18s-1.4,.47-1.62,1.18l-5.12,15.74H1.71c-.74,0-1.4,.47-1.62,1.18-.23,.7,.02,1.47,.62,1.91l13.39,9.73-5.11,15.74c-.23,.71,.02,1.47,.63,1.91,.59,.42,1.41,.42,2,0l13.39-9.73,13.39,9.73c.29,.21,.64,.32,1,.32s.71-.11,1.01-.33c.6-.44,.85-1.2,.62-1.91l-5.12-15.74,13.39-9.73c.6-.44,.85-1.2,.62-1.91-.23-.71-.88-1.18-1.62-1.18Zm-30.56,12.69c.23-.71-.02-1.47-.62-1.91l-10.14-7.37h12.54c.74,0,1.4-.47,1.62-1.18l3.87-11.92,3.87,11.92c.23,.71,.88,1.18,1.62,1.18h12.54l-10.14,7.37c-.6,.44-.85,1.2-.62,1.91l3.87,11.92-10.14-7.37c-.6-.44-1.4-.44-2.01,0l-10.14,7.37,3.87-11.92ZM1.18,19.36h0s0,0,0,0Zm9.95,27.38h0s0,0,0,0Z" style="fill:#7a4da8;"/></svg>