<?xml version="1.0" encoding="UTF-8"?><svg id="icons-gallery" xmlns="http://www.w3.org/2000/svg" viewBox="0 0 41.53 41.13"><path id="full-screen-icon" d="M41.53,15.21c-.31,.58-.79,.79-1.44,.74-.47-.04-.95,0-1.42,0-.75,0-1.16-.42-1.17-1.19,0-1.09,0-2.19,0-3.28,0-1.49,0-2.97,0-4.57-.18,.17-.29,.27-.39,.37-3.61,3.61-7.22,7.23-10.84,10.84-.73,.73-1.21,.73-1.96-.01-.33-.33-.67-.67-1-1-.57-.58-.57-1.14,.01-1.72,3.65-3.65,7.3-7.3,10.95-10.95,.1-.1,.24-.17,.36-.26-.02-.05-.05-.09-.07-.14-.14,0-.28,0-.42,0-2.43,0-4.87,0-7.3,0-.87,0-1.25-.39-1.26-1.26,0-.54,0-1.08,0-1.62,.02-.72,.42-1.13,1.14-1.13C31.27,0,35.82,0,40.36,0c.58,0,.92,.3,1.17,.77V15.21Zm0,10.71c-.31-.58-.79-.8-1.44-.74-.4,.04-.81,.04-1.22,0-.94-.08-1.4,.49-1.39,1.4,.03,2.38,.01,4.76,.01,7.14,0,.14-.01,.28-.02,.49-.16-.15-.27-.25-.37-.35-3.62-3.62-7.24-7.25-10.87-10.87-.69-.69-1.2-.69-1.9,.01-.32,.32-.63,.63-.95,.95-.69,.69-.68,1.2,.01,1.9,3.62,3.62,7.24,7.25,10.87,10.87,.11,.11,.21,.22,.37,.39-.25,0-.39,0-.54,0-2.43,0-4.87,0-7.3,0-.81,0-1.21,.4-1.22,1.22,0,.49,0,.97,0,1.46,0,.98,.37,1.34,1.35,1.34,4.41,0,8.81,0,13.22,0,.64,0,1.1-.19,1.37-.77v-14.44ZM4.13,6.94c.39,.4,.78,.81,1.18,1.2,3.34,3.35,6.69,6.69,10.03,10.04,.62,.62,1.16,.61,1.78,0,.34-.33,.67-.67,1-1,.69-.69,.69-1.21,0-1.9-3.63-3.63-7.26-7.26-10.89-10.9-.1-.1-.19-.21-.34-.37,.23,0,.38,0,.52,0,2.45,0,4.89,0,7.34,0,.76,0,1.17-.4,1.19-1.17,0-.51,0-1.03,0-1.54,0-.92-.38-1.3-1.3-1.3-1.93,0-3.87,0-5.8,0-2.54,0-5.08,0-7.62,0C.43,0,0,.41,0,1.14c0,4.56,0,9.11,0,13.67,0,.7,.43,1.12,1.14,1.13,.51,0,1.03,0,1.54,0,.97,0,1.34-.38,1.34-1.35,0-2.39,0-4.78,0-7.18,0-.14,0-.28,0-.42,.03-.02,.07-.03,.1-.05Zm3.12,29.78c3.65-3.65,7.3-7.3,10.95-10.95,.6-.6,.59-1.15,0-1.75-.33-.34-.67-.67-1-1-.72-.72-1.21-.72-1.93,0-3.61,3.61-7.22,7.23-10.84,10.84-.11,.11-.22,.21-.4,.39,0-1.25,0-2.4,0-3.55,0-1.42,0-2.84,0-4.26,0-.84-.41-1.24-1.24-1.25-.49,0-.97,0-1.46,0-.95,0-1.33,.38-1.33,1.31,0,4.42,0,8.84,0,13.26,0,1,.36,1.36,1.36,1.36,2.97,0,5.95,0,8.92,0,1.5,0,3,0,4.5,0,.73,0,1.14-.4,1.15-1.12,.01-.59,0-1.19,0-1.78,0-.41-.14-.76-.52-.94-.22-.11-.49-.16-.73-.16-2.57-.01-5.13,0-7.81,0,.17-.18,.26-.28,.37-.39Z" style="fill:#7a4da8;"/></svg>