<?xml version="1.0" encoding="UTF-8"?><svg id="icons-gallery" xmlns="http://www.w3.org/2000/svg" viewBox="0 0 42.92 46.22"><path id="garbage-icon" d="M17.47,0c2.65,0,5.29,0,7.94,0,.04,.02,.07,.06,.11,.07,2.66,.58,4.16,2.42,4.17,5.15,0,.45,0,.89,0,1.38h.59c3.5,0,7.01,0,10.51,0,1.28,0,1.67,.26,2.13,1.44v.45c-.49,1.18-.86,1.43-2.19,1.43-.3,0-.6,.02-.9,0-.28-.02-.4,.06-.42,.36-.04,.69-.12,1.38-.18,2.07-.31,3.47-.62,6.95-.94,10.42-.35,3.8-.7,7.61-1.05,11.41-.31,3.46-.62,6.92-.93,10.38-.1,1.1-.75,1.67-1.85,1.67-8.68,0-17.36,0-26.03,0-1.12,0-1.76-.58-1.86-1.71-.15-1.66-.3-3.32-.45-4.99-.43-4.81-.86-9.61-1.3-14.42-.45-4.93-.9-9.85-1.33-14.78-.03-.34-.15-.42-.47-.42-.57,.01-1.15,.03-1.71-.06-.9-.14-1.45-1.02-1.27-1.91,.17-.83,.82-1.33,1.78-1.33,3.59,0,7.19,0,10.78,0,.18,0,.36,0,.61,0,0-.66-.02-1.29,0-1.92,.1-2.08,1.5-3.87,3.49-4.47C16.96,.14,17.22,.07,17.47,0Zm-7.73,42.91c.22,0,.4,0,.58,0,7.41,0,14.83,0,22.24,0,.09,0,.18,0,.27,0,.23,.02,.31-.08,.33-.31,.08-1.02,.18-2.04,.27-3.05,.25-2.8,.51-5.6,.76-8.4,.29-3.16,.58-6.32,.86-9.48,.26-2.83,.52-5.66,.77-8.49,.1-1.07,.19-2.15,.29-3.24H6.76c1,10.99,1.99,21.94,2.99,32.97ZM16.51,6.57h9.88c0-.61,.04-1.2,0-1.78-.07-.84-.7-1.45-1.56-1.46-2.25-.03-4.51-.03-6.76,0-.83,0-1.46,.61-1.54,1.43-.06,.59-.01,1.19-.01,1.82Zm9.89,31.17s0,.02,0,.07c-.02,1,.59,1.72,1.51,1.81,.89,.08,1.65-.56,1.77-1.54,.07-.61,.1-1.23,.15-1.84,.25-3.57,.5-7.14,.76-10.71,.25-3.49,.51-6.99,.76-10.48,.07-.97-.6-1.75-1.54-1.83-.88-.08-1.69,.61-1.76,1.57-.17,2.16-.31,4.32-.46,6.48-.2,2.76-.4,5.52-.6,8.28-.19,2.71-.39,5.43-.58,8.21Zm-9.92-.06c-.13-1.87-.26-3.75-.4-5.62-.23-3.18-.46-6.36-.69-9.54-.18-2.58-.36-5.16-.55-7.74-.07-.96-.87-1.64-1.76-1.57-.94,.08-1.61,.85-1.54,1.83,.17,2.57,.36,5.13,.55,7.69,.26,3.64,.52,7.29,.78,10.93,.11,1.51,.21,3.03,.35,4.54,.07,.69,.5,1.13,1.16,1.35,.89,.3,2.25-.37,2.09-1.87Zm6.61-11.27c0-1.7,0-3.4,0-5.1,0-2.16,0-4.33-.01-6.49,0-.87-.62-1.5-1.48-1.6-.77-.09-1.53,.43-1.73,1.21-.06,.24-.06,.51-.06,.76,0,7.49,0,14.97,0,22.46,0,.15,0,.3,.01,.45,.08,1.03,1.06,1.73,2.06,1.45,.79-.22,1.21-.83,1.22-1.78,0-3.79,0-7.58,0-11.37Zm3.32,11.4c-.02,1,.59,1.72,1.51,1.81,.89,.08,1.65-.56,1.77-1.54,.07-.61,.1-1.23,.15-1.84,.25-3.57,.5-7.14,.76-10.71,.25-3.49,.51-6.99,.76-10.48,.07-.97-.6-1.75-1.54-1.83-.88-.08-1.69,.61-1.76,1.57-.17,2.16-.31,4.32-.46,6.48-.2,2.76-.4,5.52-.6,8.28-.19,2.71-.39,5.43-.58,8.21,0-.02,0,.02,0,.07Zm-10.32-5.75c-.23-3.18-.46-6.36-.69-9.54-.18-2.58-.36-5.16-.55-7.74-.07-.96-.87-1.64-1.76-1.57-.94,.08-1.61,.85-1.54,1.83,.17,2.57,.36,5.13,.55,7.69,.26,3.64,.52,7.29,.78,10.93,.11,1.51,.21,3.03,.35,4.54,.07,.69,.5,1.13,1.16,1.35,.89,.3,2.25-.37,2.09-1.87-.13-1.87-.26-3.75-.4-5.62Zm7-10.74c0-2.16,0-4.33-.01-6.49,0-.87-.62-1.5-1.48-1.6-.77-.09-1.53,.43-1.73,1.21-.06,.24-.06,.51-.06,.76,0,7.49,0,14.97,0,22.46,0,.15,0,.3,.01,.45,.08,1.03,1.06,1.73,2.06,1.45,.79-.22,1.21-.83,1.22-1.78,0-3.79,0-7.58,0-11.37,0-1.7,0-3.4,0-5.1Z" style="fill:#7a4da8;"/></svg>