<?xml version="1.0" encoding="UTF-8"?><svg id="icons-gallery" xmlns="http://www.w3.org/2000/svg" viewBox="0 0 51 51"><path id="home-icon" d="M50.53,23.3c-.22-.52-.6-1.04-1.19-1.64-5.09-5.11-10.18-10.2-15.28-15.3l-3.64-3.63c-.46-.45-.91-.89-1.34-1.35-1.47-1.57-4.28-1.71-5.87-.86-.5,.27-1.01,.66-1.5,1.15-2.88,2.87-5.75,5.74-8.62,8.61-3.56,3.55-7.11,7.11-10.68,10.66C1.32,22.01,.33,23.11,0,24.69v1.47s.02,.18,.02,.18c.06,.16,.12,.33,.17,.5,.13,.4,.27,.81,.5,1.19,.93,1.6,2.36,2.45,4.25,2.55,.13,0,.27,.01,.41,0v.1c0,1.41,0,2.81,0,4.22,0,3.24,.02,6.6-.03,9.89-.05,3.53,2.49,5.77,4.94,6.12l.15,.09h9.13l.18-.03c1.01-.38,1.49-1.14,1.49-2.34-.02-2.87-.01-5.74-.01-8.62v-2.46c0-1.52,.75-2.26,2.29-2.26,1.38,0,2.76,0,4.15,0,1.41,0,2.18,.78,2.18,2.17v1.86c0,3.1,.01,6.21,0,9.31,0,1.19,.48,1.96,1.49,2.33l9.17,.03,.22-.03,.07-.07c3.3-.82,4.9-2.88,4.9-6.3v-14.02c.13,0,.25,0,.37,0,1.76-.07,3.27-.91,4.17-2.31,.92-1.45,1.04-3.26,.32-4.96Zm-8.76,21.45c0,.72-.22,1.32-.66,1.75-.42,.41-.99,.61-1.67,.59-.74-.03-1.48-.04-2.22-.04-.57,0-1.13,0-1.69,.01-.56,0-1.12,0-1.68,0h-.09v-3.07c0-2.22,0-4.45,0-6.67-.02-2.91-1.85-5.2-4.66-5.83-.16-.04-.34-.08-.54-.08-.6,0-1.19-.01-1.79-.02-1.41-.02-2.86-.05-4.3,.05-2.8,.19-5.12,2.67-5.16,5.53-.04,2.32-.03,4.64-.03,6.96v3.13s-1.97,0-1.97,0h-3.88c-1.33,0-2.13-.8-2.13-2.12v-15.98c0-1.54-.78-2.32-2.31-2.32h-1.82c-.58,0-.94-.23-1.15-.73-.21-.49-.11-.91,.31-1.33L24.41,4.51c.43-.43,.79-.64,1.11-.64h0c.32,0,.68,.21,1.11,.63l19.8,19.8,.1,.1c.12,.12,.25,.24,.34,.38,.28,.4,.32,.78,.12,1.2-.21,.43-.54,.65-.99,.66-.43,.01-.87,.01-1.3,0h-.79c-1.35,0-2.16,.82-2.16,2.17v4.23c-.01,3.84-.02,7.8,.02,11.71Z" style="fill:#7a4da8;"/></svg>