<?xml version="1.0" encoding="UTF-8"?><svg id="icons-gallery" xmlns="http://www.w3.org/2000/svg" viewBox="0 0 54.36 40.76"><path id="image-icon" d="M54.36,5.41v29.92s-.07,.09-.08,.13c-.38,2.77-2.89,5.31-6.55,5.3-13.69-.05-27.39-.02-41.08-.02-.23,0-.46,0-.69,0C2.74,40.63,.01,37.85,.01,34.63,0,25.16-.01,15.68,.02,6.2,.03,3.62,1.31,1.75,3.62,.58c.57-.29,1.2-.38,1.8-.58H48.95c.09,.1,.22,.08,.34,.11,1.84,.38,3.25,1.38,4.22,2.99,.44,.72,.62,1.52,.85,2.31Zm-3.42,20.47c.01-.2,.02-.28,.02-.37,0-6.42,0-12.84,0-19.26,0-1.67-1.25-2.86-2.97-2.86-13.87,0-27.74,0-41.62,0-1.77,0-2.97,1.2-2.97,2.96,0,7.85,0,15.7,0,23.55,0,.13-.07,.28,.16,.44,.12-.15,.24-.33,.39-.48,2.98-2.98,5.95-5.96,8.93-8.93,1.78-1.78,4.14-1.78,5.93,0,.73,.72,1.45,1.45,2.18,2.18q.52,.52,1.03,.02c3.34-3.34,6.68-6.68,10.02-10.01,1.91-1.91,4.21-1.91,6.12,0,2.15,2.15,4.3,4.3,6.46,6.45,2.08,2.08,4.15,4.15,6.31,6.32Zm-23.74,11.47c6.9,0,13.8,0,20.7,0,1.9,0,3.07-1.17,3.07-3.08,0-1.01-.02-2.02,0-3.02,0-.38-.1-.65-.37-.93-4.95-4.93-9.89-9.87-14.83-14.81-.57-.57-.75-.57-1.34,.02-3.84,3.84-7.68,7.68-11.52,11.51-.93,.93-1.84,.93-2.77,0-1.24-1.24-2.48-2.48-3.72-3.71-.48-.48-.63-.48-1.09-.03-3.85,3.85-7.7,7.7-11.56,11.54-.24,.24-.28,.44-.15,.74,.46,1.09,1.48,1.75,2.78,1.75,6.93,0,13.87,0,20.8,0ZM11.32,15.83c-2.5,0-4.51-2.03-4.51-4.52,0-2.5,2.06-4.54,4.57-4.52,2.49,.02,4.49,2.05,4.47,4.55-.02,2.5-2.03,4.5-4.53,4.49Zm1.13-4.54c0-.61-.5-1.1-1.11-1.11-.62,0-1.14,.52-1.13,1.15,.01,.63,.53,1.12,1.17,1.09,.62-.02,1.08-.51,1.07-1.14Z" style="fill:#7a4da8;"/></svg>