<?xml version="1.0" encoding="UTF-8"?><svg id="icons-gallery" xmlns="http://www.w3.org/2000/svg" viewBox="0 0 50 50"><path id="info-icon" d="M25,0C11.22,0,0,11.22,0,25s11.22,25,25,25,25-11.22,25-25S38.79,0,25,0Zm21.55,25c0,11.88-9.67,21.55-21.55,21.55S3.45,36.88,3.45,25,13.12,3.45,25,3.45s21.55,9.67,21.55,21.55Zm-19.5-4.65v16.46c0,1.13-.92,2.05-2.05,2.05s-2.05-.92-2.05-2.05V20.35c0-1.13,.92-2.05,2.05-2.05s2.05,.92,2.05,2.05Zm-4.38-6.58c0-1.29,1.04-2.33,2.33-2.33s2.33,1.04,2.33,2.33-1.04,2.33-2.33,2.33-2.33-1.04-2.33-2.33Z" style="fill:#7a4da8;"/></svg>