<?xml version="1.0" encoding="UTF-8"?><svg id="icons-gallery" xmlns="http://www.w3.org/2000/svg" viewBox="0 0 50 47.77"><path id="like-icon" d="M39.63,.34c-5.2-1.21-10.83,.87-14.63,5.33C21.2,1.21,15.57-.86,10.37,.34,4.19,1.78,.12,7.12,0,13.94c-.32,18.53,24.22,33.68,24.47,33.75,.17,.05,.35,.08,.53,.08s.36-.03,.52-.08c.25-.07,24.79-15.21,24.47-33.75-.12-6.82-4.19-12.16-10.37-13.6Zm-14.63,43.43c-3.79-2.55-21.59-15.29-21.34-29.76,.09-5.09,3.05-9.06,7.54-10.1,.7-.16,1.43-.25,2.16-.25,3.88,0,7.75,2.33,10.1,6.08,.66,1.05,2.44,1.06,3.1,0,2.84-4.53,7.76-6.88,12.25-5.83,4.49,1.05,7.45,5.01,7.54,10.1,.25,14.47-17.55,27.22-21.34,29.76Z" style="fill:#7a4da8;"/></svg>