<?xml version="1.0" encoding="UTF-8"?><svg id="icons-gallery" xmlns="http://www.w3.org/2000/svg" viewBox="0 0 53.77 42.41"><path id="movieplay-icon" d="M47.76,0H6.01C2.7,0,0,2.7,0,6.01v30.38c0,3.32,2.7,6.01,6.01,6.01H47.76c3.32,0,6.01-2.7,6.01-6.01V6.01c0-3.32-2.7-6.01-6.01-6.01Zm.04,34.69v5.45h-3.91v-5.45h3.91Zm3.71,0v1.7c0,1.17-.53,2.24-1.44,2.94v-4.65h1.44Zm-9.88,0v5.45h-3.91v-5.45h3.91Zm-6.17,0v5.45h-3.91v-5.45h3.91Zm-6.17,0v5.45h-3.91v-5.45h3.91Zm-6.18,0v5.45h-3.91v-5.45h3.91Zm-6.17,0v5.45h-3.91v-5.45h3.91Zm-6.17,0v5.45h-3.91v-5.45h3.91Zm-8.48,1.7v-1.7h2.31v5.16c-1.39-.58-2.31-1.93-2.31-3.46ZM4.57,2.56V7.29H2.27v-1.27c0-1.53,.91-2.88,2.31-3.46Zm2.27,4.73V2.27h3.91V7.29h-3.91Zm6.17,0V2.27h3.91V7.29h-3.91Zm6.17,0V2.27h3.91V7.29h-3.91Zm6.17,0V2.27h3.91V7.29h-3.91Zm6.17,0V2.27h3.91V7.29h-3.91Zm6.17,0V2.27h3.91V7.29h-3.91Zm12.35-4.22c.91,.71,1.44,1.78,1.44,2.94v1.27h-1.44V3.07Zm-6.17,4.22V2.27h3.91V7.29h-3.91Zm7.61,2.27v22.87H2.27V9.55H51.51ZM21.12,28.31c.19,.11,.41,.17,.63,.17s.45-.06,.64-.17l10.28-6.01c.39-.22,.62-.64,.62-1.09s-.24-.86-.62-1.09l-10.28-6.01c-.39-.23-.88-.23-1.26,0-.39,.22-.64,.64-.64,1.09v12.02c0,.45,.24,.87,.63,1.09Zm1.89-3.29v-7.63l6.52,3.81-6.52,3.81Z" style="fill:#7a4da8;"/></svg>