<?xml version="1.0" encoding="UTF-8"?><svg id="icons-gallery" xmlns="http://www.w3.org/2000/svg" viewBox="0 0 39.28 44.11"><path id="music-icon" d="M38.67,.38c-.38-.31-.87-.44-1.37-.35L11.41,4.86c-.79,.15-1.36,.84-1.36,1.65V31.62c-1.01-.59-2.16-.91-3.35-.91-3.69,0-6.7,3-6.7,6.7s3,6.7,6.7,6.7,6.7-3,6.7-6.7V13.71l22.54-4.21V26.6c-1.01-.59-2.16-.91-3.35-.91-3.69,0-6.7,3-6.7,6.7s3,6.7,6.7,6.7,6.7-3,6.7-6.7V1.67c0-.5-.22-.97-.6-1.29h0Zm-2.74,3.3v2.41L13.39,10.3v-2.41L35.93,3.68ZM6.7,40.76c-1.85,0-3.35-1.5-3.35-3.35s1.5-3.35,3.35-3.35,3.35,1.5,3.35,3.35-1.5,3.35-3.35,3.35Zm29.24-8.37c0,1.85-1.5,3.35-3.35,3.35s-3.35-1.5-3.35-3.35,1.5-3.35,3.35-3.35,3.35,1.5,3.35,3.35Z" style="fill:#7a4da8;"/></svg>