<?xml version="1.0" encoding="UTF-8"?><svg id="icons-gallery" xmlns="http://www.w3.org/2000/svg" viewBox="0 0 38.98 50"><path id="password-icon" d="M36.86,17.38h-3.75v-3.79c0-7.5-6.17-13.6-13.76-13.6S5.59,6.1,5.59,13.6v3.79H2.12c-1.17,0-2.12,.96-2.12,2.13v28.35c0,1.18,.95,2.13,2.12,2.13H36.86c1.17,0,2.12-.96,2.12-2.13V19.51c0-1.18-.95-2.13-2.12-2.13Zm-27.04,0v-3.79c0-5.15,4.28-9.33,9.53-9.33s9.53,4.19,9.53,9.33v3.79H9.82Zm-5.59,28.36V21.64h30.51v24.09H4.23ZM21.33,28.18v8.63c0,1.17-.96,2.13-2.13,2.13s-2.13-.96-2.13-2.13v-8.63c0-1.18,.96-2.13,2.13-2.13s2.13,.96,2.13,2.13Z" style="fill:#7a4da8;"/></svg>