<?xml version="1.0" encoding="UTF-8"?><svg id="icons-gallery" xmlns="http://www.w3.org/2000/svg" viewBox="0 0 50 50"><path id="pause-icon" d="M25,0C11.21,0,0,11.22,0,25s11.21,25,25,25,25-11.22,25-25S38.79,0,25,0Zm21.49,25c0,11.85-9.64,21.49-21.49,21.49S3.51,36.85,3.51,25,13.15,3.51,25,3.51s21.49,9.64,21.49,21.49ZM22.18,12.41h-6.06c-.97,0-1.75,.79-1.75,1.75v21.66c0,.97,.79,1.75,1.75,1.75h6.06c.97,0,1.75-.79,1.75-1.75V14.17c0-.97-.79-1.75-1.75-1.75Zm-1.75,3.51v18.15h-2.55V15.92h2.55Zm13.44-3.51h-6.05c-.97,0-1.75,.79-1.75,1.75v21.66c0,.97,.79,1.75,1.75,1.75h6.05c.97,0,1.75-.79,1.75-1.75V14.17c0-.97-.79-1.75-1.75-1.75Zm-1.76,3.51v18.15h-2.54V15.92h2.54Z" style="fill:#7a4da8;"/></svg>