<?xml version="1.0" encoding="UTF-8"?><svg id="icons-gallery" xmlns="http://www.w3.org/2000/svg" viewBox="0 0 50 50"><path id="play-icon" d="M25,0C11.22,0,0,11.22,0,25s11.22,25,25,25,25-11.22,25-25S38.79,0,25,0Zm21.55,25c0,11.88-9.67,21.55-21.55,21.55S3.45,36.88,3.45,25,13.12,3.45,25,3.45s21.55,9.67,21.55,21.55Zm-9.96-1.49L19.04,13.25c-.54-.31-1.2-.32-1.73,0-.54,.31-.87,.88-.87,1.5v20.52c0,.62,.33,1.19,.86,1.49,.26,.15,.56,.23,.86,.23s.61-.08,.87-.24l17.54-10.26c.53-.31,.85-.88,.85-1.49s-.33-1.18-.85-1.49Zm-.42,.72h0s0,0,0,0h0Zm-3.87,.77l-12.4,7.25v-14.51l12.4,7.25Z" style="fill:#7a4da8;"/></svg>