<?xml version="1.0" encoding="UTF-8"?><svg id="icons-gallery" xmlns="http://www.w3.org/2000/svg" viewBox="0 0 44.43 50.5"><path id="search-icon" d="M43.87,46.57l-10.84-12.75c3.91-3.69,6.15-8.86,6.15-14.24C39.17,8.79,30.38,0,19.58,0S0,8.79,0,19.59s8.79,19.58,19.58,19.58c3.35,0,6.67-.87,9.59-2.51l11.06,13.01c.45,.53,1.11,.84,1.81,.84,.57,0,1.12-.2,1.55-.57,.48-.41,.78-.99,.83-1.62,.05-.64-.15-1.25-.56-1.74Zm-9.46-26.99c0,8.17-6.65,14.82-14.82,14.82s-14.82-6.65-14.82-14.82S11.41,4.77,19.58,4.77s14.82,6.65,14.82,14.82Z" style="fill:#7a4da8;"/></svg>