<?xml version="1.0" encoding="UTF-8"?><svg id="icons-gallery" xmlns="http://www.w3.org/2000/svg" viewBox="0 0 50.75 50.75"><path id="settings-icon" d="M47.08,19.2h-2.23c-.19,0-.36-.12-.42-.31-.29-.83-.63-1.64-1.02-2.43-.08-.15-.05-.33,.06-.44l1.62-1.62c.69-.69,1.08-1.62,1.08-2.6,0-.98-.38-1.91-1.08-2.6l-3.54-3.54c-1.43-1.43-3.76-1.43-5.2,0l-1.63,1.63c-.12,.12-.3,.14-.45,.07-.79-.39-1.61-.73-2.43-1.01-.17-.05-.28-.21-.28-.38V3.67c0-2.02-1.65-3.67-3.67-3.67h-5c-2.02,0-3.67,1.65-3.67,3.67v2.29c0,.18-.12,.33-.29,.39-.84,.29-1.66,.63-2.44,1.01-.15,.07-.32,.05-.44-.07l-1.65-1.65c-.71-.69-1.67-1.08-2.6-1.05-1.03,.05-1.92,.41-2.59,1.06l-3.54,3.54c-.69,.69-1.08,1.62-1.08,2.6s.38,1.91,1.08,2.6l1.61,1.61c.12,.12,.14,.3,.07,.45-.39,.79-.74,1.61-1.02,2.43-.06,.18-.23,.3-.41,.3H3.67c-2.02,0-3.67,1.65-3.67,3.68v5c0,2.03,1.65,3.67,3.67,3.67h2.19c.19,0,.36,.12,.42,.31,.29,.85,.63,1.68,1.03,2.48,.07,.15,.05,.32-.07,.43l-1.58,1.58c-1.43,1.43-1.43,3.76,0,5.2l3.55,3.55c.72,.7,1.59,1.03,2.56,1.05,.96,.07,1.86-.3,2.63-1.06l1.56-1.55c.11-.11,.29-.14,.45-.07,.79,.39,1.62,.74,2.48,1.04,.19,.06,.32,.24,.32,.44v2.13c0,2.03,1.65,3.67,3.67,3.68h5c2.02,0,3.68-1.65,3.68-3.67v-2.13c0-.2,.13-.38,.33-.45,.84-.29,1.67-.63,2.47-1.03,.15-.08,.32-.05,.44,.06l1.56,1.56c1.43,1.43,3.76,1.43,5.2,0l3.54-3.54c1.43-1.43,1.43-3.76,0-5.2l-1.57-1.58c-.12-.12-.14-.3-.07-.45,.39-.8,.74-1.63,1.03-2.48,.06-.18,.23-.3,.41-.3h2.19c2.02,0,3.67-1.65,3.67-3.68v-5c0-2.02-1.65-3.67-3.67-3.67Zm-6.25,11.44c-.23,.68-.51,1.35-.82,1.99-.81,1.62-.49,3.57,.79,4.86l1.46,1.46-3.31,3.31-1.45-1.45c-1.29-1.28-3.24-1.59-4.87-.78-.64,.32-1.31,.6-2,.83-1.75,.59-2.92,2.23-2.93,4.08v1.97h-4.68v-1.97c0-1.84-1.18-3.48-2.92-4.07-.7-.24-1.37-.52-2-.84-.59-.29-1.24-.44-1.89-.44-1.11,.01-2.22,.47-2.98,1.23l-1.45,1.44-3.31-3.3,1.47-1.47c1.28-1.28,1.59-3.23,.79-4.85-.32-.64-.59-1.31-.83-1.99-.58-1.74-2.21-2.92-4.05-2.92H3.83v-4.68h2.08c1.83,0,3.45-1.17,4.04-2.9,.23-.67,.51-1.33,.82-1.96,.82-1.62,.5-3.58-.78-4.87l-1.5-1.5,3.31-3.31,1.53,1.53c1.29,1.28,3.23,1.59,4.85,.79,.62-.31,1.28-.58,1.96-.81,1.73-.58,2.89-2.2,2.9-4.02V3.83h4.68v2.13c0,1.82,1.17,3.43,2.89,4.02,.66,.22,1.32,.5,1.96,.81,1.62,.81,3.57,.5,4.86-.79l1.52-1.53,3.31,3.31-1.5,1.51c-1.28,1.29-1.6,3.25-.78,4.87,.31,.62,.59,1.28,.82,1.96,.59,1.73,2.21,2.89,4.04,2.9h2.07v4.68h-2.03c-1.84,0-3.46,1.18-4.05,2.92ZM25.37,11.67c-7.55,0-13.7,6.15-13.7,13.7s5.99,13.54,13.41,13.7h0s.29,0,.29,0c7.55,0,13.69-6.16,13.7-13.7,0-7.55-6.15-13.7-13.7-13.7Zm9.87,13.7c0,5.44-4.43,9.87-9.87,9.87s-9.87-4.43-9.87-9.87,4.43-9.87,9.86-9.87c5.43,0,9.86,4.43,9.87,9.87Z" style="fill:#7a4da8;"/></svg>