<?xml version="1.0" encoding="UTF-8"?><svg id="icons-gallery" xmlns="http://www.w3.org/2000/svg" viewBox="0 0 45.05 47.13"><path id="share-icon" d="M27.76,47.13s.06,0,.09,0c.71-.03,1.32-.49,1.56-1.16L44.95,2.33c.24-.67,.05-1.41-.49-1.89-.54-.47-1.29-.57-1.94-.25L.97,20.9c-.63,.32-1.01,.98-.96,1.68,.02,.22,.07,.44,.17,.64h0c.2,.42,.57,.74,1.02,.89l17.25,5.74,7.75,16.29c.29,.6,.9,.98,1.57,.98Zm-7.51-20.35l-13.95-4.64L40.21,5.24l-12.68,35.6-6.28-13.21c-.14-.24-.46-.67-.99-.84ZM.9,22.88H.9Z" style="fill:#7a4da8;"/></svg>