<?xml version="1.0" encoding="UTF-8"?><svg id="icons-gallery" xmlns="http://www.w3.org/2000/svg" viewBox="0 0 48.62 43.95"><path id="stream-icon" d="M48.62,6.79c0,10.11,0,20.23,0,30.34,0,4.32-2.47,6.8-6.76,6.81-1.5,0-3,0-4.49,0-1.17,0-2.33,0-3.49,0h-4.01c-1.54-.02-2.49-.89-2.48-2.27,0-1.39,.94-2.21,2.49-2.21h.02c2.84,.01,5.69,.01,8.53,0h2.94c2.47,0,2.78-.32,2.78-2.83V6.93c0-1.99-.45-2.45-2.39-2.45-11.61,0-23.21,0-34.82,0-1.98,0-2.44,.45-2.44,2.4v1.53c0,1.82-.01,3.65,0,5.47,.02,2.07-1.16,2.59-2.16,2.67-.6,.04-1.14-.12-1.54-.5C.28,15.59,.01,14.84,.01,13.85v-.59C0,10.94,0,8.63,.01,6.32,.04,2.62,2.66,.03,6.36,.01,10.52,0,14.68,0,18.84,0h5.51s5.14,0,5.14,0c4.11,0,8.22,0,12.34,0,4.31,0,6.79,2.48,6.79,6.78ZM23.13,40.49c-.45-6.32-3.22-11.49-8.23-15.36-3.72-2.87-7.91-4.3-12.5-4.23-.87,.01-1.79,.71-2.15,1.36-.4,.72,.04,1.94,.52,2.4,.43,.41,1.11,.62,2.1,.66,7.28,.27,13.56,5.36,15.27,12.38,.22,.9,.31,1.83,.4,2.82,.04,.41,.08,.83,.13,1.24,.16,1.38,.99,2.18,2.22,2.18,.06,0,.11,0,.17,0,1.29-.08,2.09-.97,2.08-2.34v-.53s0-.53,0-.53v-.05ZM2.82,29.53c-1.02-.03-1.77,.21-2.25,.7-.26,.27-.57,.74-.54,1.51,.05,1.4,.91,2.16,2.56,2.27,4.17,.26,7.13,3.21,7.38,7.33,.1,1.63,.86,2.5,2.25,2.57,.04,0,.09,0,.13,0,.54,0,1.01-.18,1.37-.53,.5-.49,.75-1.27,.72-2.27-.16-6.14-5.49-11.44-11.63-11.58Zm.71,7.22c-1.9,0-3.45,1.55-3.45,3.45s1.55,3.45,3.45,3.45,3.45-1.55,3.45-3.45-1.55-3.45-3.45-3.45Z" style="fill:#7a4da8;"/></svg>