<?xml version="1.0" encoding="UTF-8"?><svg id="icons-gallery" xmlns="http://www.w3.org/2000/svg" viewBox="0 0 51.55 55.08"><path id="tv-icon" d="M44.95,9.24H28.19l7-7c.25-.25,.39-.58,.39-.93s-.14-.68-.39-.93c-.51-.51-1.35-.51-1.86,0l-8.21,8.21-5.91-5.91c-.51-.51-1.35-.51-1.86,0-.51,.51-.51,1.35,0,1.86l4.7,4.7H6.6c-3.64,0-6.6,2.96-6.6,6.6v27.94c0,3.64,2.96,6.6,6.6,6.6h7.86v2.16c0,1.4,1.14,2.54,2.54,2.54h17.55c1.4,0,2.54-1.14,2.54-2.54v-2.16h7.86c3.64,0,6.6-2.96,6.6-6.6V15.84c0-3.64-2.96-6.6-6.6-6.6Zm-10.61,41.14v1.95H17.21v-1.95h17.13ZM48.8,15.84v27.94c0,2.12-1.73,3.85-3.85,3.85H6.6c-2.12,0-3.85-1.73-3.85-3.85V15.84c0-2.12,1.73-3.85,3.85-3.85H44.95c2.12,0,3.85,1.73,3.85,3.85Zm-16.92,12.8l-10.84-6.34c-.42-.25-.95-.25-1.36,0-.42,.24-.69,.69-.69,1.18v12.68c0,.49,.26,.94,.68,1.18,.21,.12,.44,.18,.68,.18s.48-.06,.69-.19l10.84-6.34c.42-.24,.67-.69,.67-1.17s-.26-.93-.67-1.17Zm-3.38,1.17l-6.78,3.97v-7.93l6.78,3.97Zm17.42,13.3c0,1.11-.91,2.02-2.02,2.02s-2.02-.91-2.02-2.02,.91-2.02,2.02-2.02,2.02,.91,2.02,2.02Z" style="fill:#7a4da8;"/></svg>