<?xml version="1.0" encoding="UTF-8"?><svg id="icons-gallery" xmlns="http://www.w3.org/2000/svg" viewBox="0 0 33.3 51"><path id="user-icon" d="M24.28,24.01c3.35-2.51,5.4-6.53,5.4-10.69C29.69,5.97,23.71,0,16.37,0S3.05,5.97,3.05,13.32c0,4.29,2.14,8.38,5.64,10.87-2.07,1.14-3.89,2.7-5.31,4.57-2.21,2.91-3.38,6.38-3.38,10.04v9.96c0,1.24,1.01,2.24,2.24,2.24H31.06c1.24,0,2.24-1.01,2.24-2.24v-9.96c0-6.23-3.51-11.94-9.02-14.79Zm-7.63,2.63c6.71,0,12.17,5.46,12.17,12.17v7.71H4.48v-7.71c0-6.71,5.46-12.17,12.17-12.17ZM7.53,13.32c0-4.87,3.96-8.83,8.83-8.83s8.83,3.96,8.83,8.83-3.96,8.83-8.83,8.83-8.83-3.96-8.83-8.83Z" style="fill:#7a4da8;"/></svg>