<?xml version="1.0" encoding="UTF-8"?><svg id="icons-gallery" xmlns="http://www.w3.org/2000/svg" viewBox="0 0 44.74 38"><path id="videocam-icon" d="M44.73,19.75c-.01-1.27-.51-2.22-1.47-2.84-.89-.57-1.75-.63-2.61-.17-1.32,.7-2.68,1.38-3.99,2.04-.53,.26-1.06,.53-1.58,.79l-1.98,1c-.62-1.88-1.88-3.07-3.76-3.55,3.31-3.28,4.17-6.98,2.53-11.01C30.32,2.21,27.35,.13,23.27,0c-4.39-.13-7.6,1.97-9.52,6.28-1.43-1.23-3.26-1.84-5.14-1.76-2.01,.1-3.95,1-5.21,2.41-1.27,1.42-1.93,3.06-1.96,4.88-.04,2.13,.63,3.94,2,5.4h0C1.32,18,0,19.9,0,22.16v3.96C0,28.43,0,30.74,0,33.05c0,1.43,.56,2.64,1.66,3.59,1.05,.91,2.32,1.36,3.76,1.36H22.48s5.69,0,5.69,0c.1,0,.2,0,.3,0,2.18-.07,3.92-1.48,4.42-3.59,.06-.25,.1-.51,.13-.76v-.1s.06,.02,.08,.03l2.01,.99c1.82,.9,3.71,1.83,5.55,2.77,.62,.32,1.24,.35,1.95,.11,1.32-.46,2.14-1.69,2.14-3.21,0-2.86,0-5.73,0-8.59v-2.77c0-1.04,0-2.09,0-3.13Zm-2.94,14.25c0,.11,0,.22,0,.33-.02,.17-.06,.24-.08,.25-.02,.01-.09,.01-.24-.06l-1.92-.97c-2.11-1.07-4.22-2.13-6.34-3.19-.15-.07-.18-.12-.18-.28,.01-2.04,.01-4.07,0-6.11,0-.17,.03-.22,.17-.29,2.28-1.14,4.55-2.28,6.83-3.42l1.49-.75c.1-.05,.15-.06,.16-.06,0,0,0,0,0,0,0,0,.03,.02,.07,.15,.03,.12,.04,.27,.04,.42,0,1.87,0,3.74,0,5.6v8.28s0,.1,0,.1ZM14.54,16.65l.77-1.05,1,1.05h-1.77ZM22.89,2.91h.02c3.74,.01,6.78,3.06,6.78,6.8,0,1.81-.71,3.51-1.99,4.79-1.28,1.28-2.99,1.98-4.8,1.98h-.03c-3.28,0-6.7-2.54-6.75-6.8-.02-1.79,.67-3.48,1.94-4.76,1.29-1.3,3.01-2.02,4.83-2.02ZM2.94,21.88c0-1.35,.91-2.26,2.27-2.26H13.69s14.07,0,14.07,0c1.46,0,2.33,.87,2.33,2.32,0,3.61,0,7.22,0,10.83,0,1.41-.88,2.29-2.3,2.29-7.52,0-15.03,0-22.55,0-1.42,0-2.3-.88-2.3-2.29,0-3.63,0-7.26,0-10.89ZM8.88,7.47h.01c2.17,0,4.48,1.62,4.51,4.59,0,1.15-.44,2.24-1.27,3.07-.86,.86-2.04,1.35-3.25,1.35h-.02c-2.48-.01-4.49-2.04-4.48-4.52,0-1.2,.48-2.33,1.33-3.18,.85-.85,1.98-1.31,3.17-1.31Z" style="fill:#7a4da8;"/></svg>