<?xml version="1.0" encoding="UTF-8"?>
<svg id="Layer_1" data-name="Layer 1" xmlns="http://www.w3.org/2000/svg" viewBox="0 0 477.63 240.93">
  <path id="Roku-Logo" d="M409.44,148.1c-1.16-.37-2.37-.23-3.56-.36-6.99-.74-13.71-2.4-19.91-5.79-8.11-4.43-13.8-10.99-17.16-19.58-2.07-5.29-3.07-10.81-3.08-16.48-.04-22.48-.02-44.95-.02-67.43,0-.35,0-.7,0-1.11-.41,.04-.59,.37-.81,.59-15,14.97-29.99,29.94-44.98,44.91-.95,.94-1.86,1.92-2.85,2.82-.56,.51-.46,.79,.03,1.27,5.1,5.06,10.18,10.15,15.26,15.24,14.22,14.22,28.43,28.43,42.65,42.64,.22,.22,.52,.37,.74,.53-.3,.53-.62,.38-.87,.38-15.72,0-31.44,0-47.17,.02-.61,0-1-.25-1.4-.65-10.07-9.99-20.16-19.97-30.24-29.95-5.04-4.99-10.09-9.98-15.12-14.97-.2-.2-.35-.45-.6-.77-.27,.48-.19,.83-.19,1.15,0,14.69-.02,29.38,.02,44.06,0,.95-.26,1.13-1.16,1.13-12.22-.03-24.44-.03-36.66,0-.83,0-1.13-.16-1.13-1.08,.03-37.32,.03-74.65,0-111.97,0-.93,.26-1.14,1.17-1.14,12.22,.03,24.44,.03,36.66,0,.96,0,1.12,.28,1.12,1.16-.03,14.12-.02,28.23-.02,42.35,0,.38,0,.76,0,1.21,.44-.1,.63-.44,.88-.69,14.39-14.36,28.78-28.71,43.15-43.09,.53-.53,1.04-.78,1.81-.78,25.81,.02,51.62,.02,77.43,0,.94,0,1.2,.2,1.2,1.18-.02,21.4-.02,42.79,.02,64.19,0,4.36,.43,8.7,1.93,12.85,1.98,5.46,5.63,7.96,11.44,8.04,9.26,.12,15.72-4.37,20.25-12.12,.25-.43,.19-.86,.19-1.29,0-23.88,.01-47.75-.02-71.63,0-1.03,.3-1.21,1.25-1.21,12.22,.03,24.44,.03,36.66,0,.84,0,1.05,.2,1.05,1.04-.02,37.29-.02,74.59,0,111.88,0,.86-.2,1.14-1.1,1.12-2.16-.07-4.33-.03-6.49-.01-.51,0-.9-.13-1.29-.47-5.41-4.68-10.85-9.34-16.24-14.03-.57-.5-.83-.45-1.34,.07-8.62,8.97-19.14,14.32-31.37,16.38-1.02,.17-2.07,.09-3.07,.42h-7.07Zm-232.21,0c.12-.21,.33-.16,.51-.17,2.51-.13,5-.48,7.46-.96,13.73-2.68,25.28-9.25,34.27-19.92,12.54-14.9,16.78-32.09,12.71-51.13-3.15-14.74-11.13-26.52-23.32-35.37-8.2-5.96-17.4-9.51-27.47-10.76-7.86-.98-15.61-.48-23.26,1.58-10.23,2.76-19.15,7.85-26.61,15.34-8.72,8.74-14.26,19.22-16.45,31.4-1.56,8.66-1.2,17.28,1.06,25.78,3.43,12.89,10.44,23.47,20.98,31.67,8.54,6.65,18.21,10.62,28.96,12.01,1.37,.18,2.77,.13,4.11,.53h7.07Zm9.6-36.56c-2.06,3.17-4.65,5.82-8.2,7.33-4.55,1.94-8.79,1.17-12.64-1.78-4.41-3.37-7.05-8-8.71-13.15-3.8-11.83-3.53-23.51,1.82-34.87,1.81-3.84,4.31-7.21,8-9.5,5.04-3.14,10.66-2.68,15.2,1.17,4.61,3.91,7.18,9.05,8.86,14.72,1.18,3.98,1.71,8.07,1.86,12.22,.03,8.5-1.48,16.61-6.2,23.87ZM.2,.12C.14,.1,.07,.08,0,.06c0,48.52,0,97.03,0,145.55,.06,0,.13,0,.19-.01,0-48.49,0-96.99,0-145.48ZM1.33,145.69c12.13,0,24.25,0,36.38,0q1.26,0,1.26-1.27c0-15.42,0-30.84-.02-46.26,0-.78,.19-1.01,.99-1,3.18,.05,6.37,.06,9.55,0,.94-.02,1.47,.29,2.01,1.04,11.24,15.64,22.52,31.25,33.76,46.89,.41,.57,.82,.73,1.49,.73,14.04-.02,28.07-.01,42.11-.01,.3,0,.6,0,1.05,0-.26-.39-.43-.64-.61-.89-13.31-18.49-26.63-36.99-39.96-55.46-.49-.68-.37-.89,.29-1.29,5.99-3.63,11.25-8.1,15.47-13.71,8.01-10.66,10.98-22.48,7.78-35.57-2.44-9.99-8.03-18.06-15.88-24.53C85.63,4.99,72.38,.36,57.77,.15,38.8-.13,19.83,.07,.86,.07c-.22,0-.44,.03-.66,.05,0,48.49,0,96.99,0,145.48,.36,.17,.75,.09,1.13,.09ZM38.95,25.25c0-.82,.23-.98,1-.97,3.6,.04,7.19,0,10.79,.02,12.46,.04,22.66,9.01,24.28,21.34,1.65,12.51-6.81,24.36-19.19,26.87-1.52,.31-3.07,.49-4.64,.47-3.75-.04-7.51-.04-11.26,0-.82,.01-.98-.24-.97-1.01,.03-7.82,.02-15.64,.02-23.46,0-7.76,.01-15.51-.02-23.27Z" style="fill: #8347ad;"/>
  <path id="Flashback-Logo" d="M45.53,177.33v.83c0,.78-.64,1.42-1.42,1.42H1.42c-.78,0-1.42-.64-1.42-1.42v-.83c0-.78,.64-1.42,1.42-1.42H44.11c.78,0,1.42,.64,1.42,1.42Zm-1.42,6.04H1.42c-.78,0-1.42,.64-1.42,1.42v54.7c0,.78,.64,1.42,1.42,1.42h.83c.78,0,1.42-.64,1.42-1.42v-52.45h3.79v52.45c0,.78,.64,1.42,1.42,1.42h.83c.78,0,1.42-.64,1.42-1.42v-25.52h25.52c.78,0,1.42-.64,1.42-1.42v-.83c0-.78-.64-1.42-1.42-1.42H11.13v-3.79h25.52c.78,0,1.42-.64,1.42-1.42v-.83c0-.78-.64-1.42-1.42-1.42H11.13v-15.81H44.11c.78,0,1.42-.64,1.42-1.42v-.83c0-.78-.64-1.42-1.42-1.42Zm50.97,46.41H62.1v-52.45c0-.78-.64-1.42-1.42-1.42h-.83c-.78,0-1.42,.64-1.42,1.42v52.45h-3.79v-52.45c0-.78-.64-1.42-1.42-1.42h-.83c-.78,0-1.42,.64-1.42,1.42v54.7c0,.78,.64,1.42,1.42,1.42h42.68c.78,0,1.42-.64,1.42-1.42v-.83c0-.78-.64-1.42-1.42-1.42Zm0,7.46H52.39c-.78,0-1.42,.64-1.42,1.42v.83c0,.78,.64,1.42,1.42,1.42h42.68c.78,0,1.42-.64,1.42-1.42v-.83c0-.78-.64-1.42-1.42-1.42Zm71.38,1.61c.22,.44,.2,.96-.06,1.38-.26,.42-.72,.67-1.21,.67h-.83c-.54,0-1.03-.3-1.27-.79l-5.82-11.65h-4.2l5.19,10.38c.22,.44,.2,.96-.06,1.38-.26,.42-.72,.67-1.21,.67h-.83c-.54,0-1.03-.3-1.27-.79l-5.82-11.65h-29.65l-5.74,11.64c-.24,.48-.73,.79-1.27,.79h-.91c-.49,0-.95-.25-1.21-.67s-.29-.94-.07-1.38c1.06-2.16,2.08-4.23,3.06-6.2,.72-1.45,1.41-2.84,2.07-4.19h-4.13c-1.57,3.16-3.21,6.49-5.01,10.15l-.73,1.49c-.24,.49-.73,.79-1.28,.79h-.83c-.49,0-.95-.25-1.21-.67-.26-.42-.28-.94-.06-1.38l30.91-62.16c.24-.47,.72-.78,1.25-.79,.5,0,1.02,.28,1.27,.74l.5,.91c.23,.41,.23,.91,.02,1.33-3.87,7.51-4.14,8.03-19.28,38.46h4.12c4.72-9.44,7.67-15.3,9.72-19.38,3.26-6.48,4.24-8.43,6.45-13.05,.23-.49,.73-.8,1.27-.81,.54-.07,1.04,.3,1.28,.79l16.91,34.06c.22,.44,.19,.96-.06,1.38-.26,.42-.72,.67-1.21,.67h-40.29c-.59,1.24-1.21,2.5-1.87,3.79h45.47c.54,0,1.03,.3,1.27,.79l6.63,13.26Zm-30.18-44.2l11.23,22.69h4.2l-13.37-26.81-2.06,4.12Zm-11.31,22.69h18.53l-9.23-18.6-9.3,18.6Zm82.9-33.98h-17.57c-6.4,0-11.61,5.21-11.61,11.61s5.07,11.53,11.53,11.53c8.49,0,15.4,6.87,15.4,15.32s-6.91,15.4-15.4,15.4h-17.57c-.78,0-1.42,.64-1.42,1.42v.83c0,.78,.64,1.42,1.42,1.42h17.57c10.52,0,19.07-8.56,19.07-19.07s-8.56-18.99-19.07-18.99c-4.34,0-7.86-3.53-7.86-7.86s3.56-7.94,7.94-7.94h17.57c.78,0,1.42-.64,1.42-1.42v-.83c0-.78-.64-1.42-1.42-1.42Zm0-7.46h-17.57c-10.52,0-19.07,8.56-19.07,19.07s8.56,18.99,19.05,18.99c4.35,.07,7.89,3.6,7.89,7.86s-3.56,7.94-7.94,7.94h-17.57c-.78,0-1.42,.64-1.42,1.42v.83c0,.78,.64,1.42,1.42,1.42h17.57c6.4,0,11.61-5.21,11.61-11.62s-5.16-11.44-11.53-11.53c-8.49,0-15.4-6.87-15.4-15.32s6.91-15.4,15.4-15.4h17.57c.78,0,1.42-.64,1.42-1.42v-.83c0-.78-.64-1.42-1.42-1.42Zm40.19,0h-.83c-.78,0-1.42,.64-1.42,1.42v25.52h-19.95v-25.52c0-.78-.64-1.42-1.42-1.42h-.83c-.78,0-1.42,.64-1.42,1.42v25.52h-3.79v-25.52c0-.78-.64-1.42-1.42-1.42h-.83c-.78,0-1.42,.64-1.42,1.42v27.77c0,.78,.64,1.42,1.42,1.42h29.66v3.79h-29.66c-.78,0-1.42,.64-1.42,1.42v27.77c0,.78,.64,1.42,1.42,1.42h.83c.78,0,1.42-.64,1.42-1.42v-25.52h3.79v25.52c0,.78,.64,1.42,1.42,1.42h.83c.78,0,1.42-.64,1.42-1.42v-25.52h19.95v25.52c0,.78,.64,1.42,1.42,1.42h.83c.78,0,1.42-.64,1.42-1.42v-62.16c0-.78-.64-1.42-1.42-1.42Zm7.46,0h-.83c-.78,0-1.42,.64-1.42,1.42v62.16c0,.78,.64,1.42,1.42,1.42h.83c.78,0,1.42-.64,1.42-1.42v-62.16c0-.78-.64-1.42-1.42-1.42Zm48.08,19.07c0,5.06-2.03,9.84-5.61,13.36,3.58,3.59,5.61,8.46,5.61,13.58,0,10.47-8.56,18.99-19.07,18.99h-13.26c-.78,0-1.42-.64-1.42-1.42v-25.52h-3.79v25.52c0,.78-.64,1.42-1.42,1.42h-.83c-.78,0-1.42-.64-1.42-1.42v-54.7c0-.78,.64-1.42,1.42-1.42h20.72c6.4,0,11.61,5.21,11.61,11.61,0,3.7-1.74,7.07-4.56,9.2,1.26,.48,2.44,1.09,3.55,1.83,3.06-2.89,4.8-6.86,4.8-11.03,0-8.49-6.91-15.4-15.4-15.4h-20.72c-.78,0-1.42-.64-1.42-1.42v-.83c0-.78,.64-1.42,1.42-1.42h20.72c10.52,0,19.07,8.56,19.07,19.07Zm-30.09,7.86h11.34c4.24-.21,7.61-3.67,7.61-7.86s-3.56-7.94-7.94-7.94h-11.01v15.81Zm-7.46,0h3.79v-15.81h-3.79v15.81Zm18.86,3.67h-18.86v3.79h18.47c6.4,0,11.61,5.21,11.61,11.62s-5.21,11.53-11.61,11.53h-11.01v3.79h11.01c8.49,0,15.4-6.87,15.4-15.32s-6.74-15.25-15.02-15.4Zm-.39,23.27c4.38,0,7.94-3.53,7.94-7.86s-3.56-7.94-7.94-7.94h-11.01v15.81h11.01Zm84.9,9.07c.22,.44,.2,.96-.06,1.38-.26,.42-.72,.67-1.21,.67h-.83c-.54,0-1.03-.3-1.27-.79l-5.82-11.65h-4.2l5.19,10.38c.22,.44,.2,.96-.06,1.38-.26,.42-.72,.67-1.21,.67h-.83c-.54,0-1.03-.3-1.27-.79l-5.82-11.65h-29.65l-5.74,11.64c-.24,.48-.73,.79-1.27,.79h-.91c-.49,0-.95-.25-1.21-.67s-.29-.94-.07-1.38c1.06-2.16,2.08-4.23,3.06-6.2,.72-1.45,1.41-2.84,2.07-4.19h-4.13c-1.57,3.16-3.21,6.49-5.01,10.15l-.73,1.49c-.24,.49-.73,.79-1.28,.79h-.83c-.49,0-.95-.25-1.21-.67-.26-.42-.28-.94-.06-1.38l30.91-62.16c.24-.47,.72-.78,1.25-.79,.5,0,1.02,.28,1.27,.74l.5,.91c.23,.41,.23,.91,.02,1.33-3.87,7.51-4.14,8.03-19.28,38.46h4.12c4.72-9.44,7.67-15.3,9.72-19.38,3.26-6.48,4.24-8.43,6.45-13.05,.23-.49,.73-.8,1.27-.81h.01c.54,0,1.03,.31,1.27,.79l16.91,34.06c.22,.44,.19,.96-.06,1.38-.26,.42-.72,.67-1.21,.67h-40.29c-.59,1.24-1.21,2.5-1.87,3.79h45.47c.54,0,1.03,.3,1.27,.79l6.63,13.26Zm-30.18-44.2l11.23,22.69h4.2l-13.37-26.81-2.06,4.12Zm-11.31,22.69h18.53l-9.23-18.6-9.3,18.6Zm73.45-30.31c5.7,0,11.05,2.23,15.07,6.29,.27,.27,.63,.42,1.01,.42h0c.38,0,.74-.15,1-.42l.66-.66c.56-.56,.56-1.45,0-2.01-9.78-9.79-25.71-9.79-35.49,0-9.79,9.79-9.79,25.71,0,35.49,4.89,4.89,11.32,7.34,17.75,7.34s12.85-2.45,17.75-7.34c.56-.55,.56-1.45,0-2.01l-.66-.66c-.27-.27-.63-.42-1.01-.42h0c-.38,0-.74,.15-1.01,.42-4.02,4.06-9.37,6.29-15.07,6.29s-11.05-2.23-15.08-6.3c-4.06-4.02-6.29-9.37-6.29-15.07s2.23-11.05,6.3-15.08c4.02-4.06,9.37-6.29,15.07-6.29Zm22.39,.99l.58-.58c.55-.55,.56-1.45,0-2.01-6.12-6.16-14.28-9.56-22.97-9.56s-16.85,3.39-22.96,9.55c-6.16,6.12-9.56,14.28-9.56,22.97s3.39,16.85,9.55,22.96c6.12,6.16,14.28,9.56,22.97,9.56s16.85-3.39,22.97-9.56c.55-.56,.55-1.45,0-2.01l-.58-.58c-.56-.56-1.45-.56-2.01,0-5.42,5.42-12.66,8.41-20.38,8.41s-14.96-2.99-20.38-8.41-8.41-12.66-8.41-20.38,2.99-14.96,8.41-20.38c11.24-11.24,29.52-11.24,40.76,0,.56,.56,1.45,.56,2.01,0Zm44.04-11.31c-.23-.5-.74-.81-1.28-.81h-1.16c-.43,0-.83,.19-1.1,.52l-22.92,28v-27.1c0-.78-.64-1.42-1.42-1.42h-.83c-.78,0-1.42,.64-1.42,1.42v62.16c0,.78,.64,1.42,1.42,1.42h.83c.78,0,1.42-.64,1.42-1.42v-29.33l26.28-31.93c.35-.42,.42-1.01,.19-1.51Zm-15.28,31.69l24.79-30.18c.35-.42,.42-1.01,.19-1.51-.24-.5-.74-.81-1.28-.81h-1.16c-.42,0-.83,.19-1.1,.52l-30.42,36.97c-.43,.52-.43,1.28,0,1.81l20.72,25.2c.27,.33,.67,.52,1.1,.52h1.08c.55,0,1.05-.32,1.28-.81s.16-1.08-.18-1.51l-19.82-24.22,2.4-2.97,23.84,28.99c.27,.33,.67,.52,1.1,.52h1.08c.55,0,1.05-.32,1.28-.81s.16-1.08-.18-1.51l-24.71-30.18Zm-20.07-32.5h-.83c-.78,0-1.42,.64-1.42,1.42v62.16c0,.78,.64,1.42,1.42,1.42h.83c.78,0,1.42-.64,1.42-1.42v-62.16c0-.78-.64-1.42-1.42-1.42Z" style="fill: #f7be00;"/>
</svg>